<svg xmlns="http://www.w3.org/2000/svg" viewBox="0 0 118.69 97.77"><defs><style>.a{fill:#e9e9e9;stroke:#bebebe;}.a,.c{stroke-linecap:round;stroke-linejoin:round;stroke-width:2px;}.b{fill:#fff;}.c{fill:#3d84f6;stroke:#326cbf;}.d{fill:#ffdd67;stroke:#c4a54e;stroke-miterlimit:10;}</style></defs><path class="a" d="M98.9,35.29V13.06A12.05,12.05,0,0,0,86.86,1H13.06A12.06,12.06,0,0,0,1,13.06V59.37A12.06,12.06,0,0,0,13.06,71.42h2.55v11.9l17.25-11.9h11"/><circle class="b" cx="71.42" cy="37.46" r="6.01"/><circle class="b" cx="49.64" cy="37.46" r="6.01"/><circle class="b" cx="27.85" cy="37.46" r="6.01"/><path class="c" d="M54.47,36.16h54.34A8.88,8.88,0,0,1,117.69,45v34.1A8.89,8.89,0,0,1,108.81,88h-1.88v8.76L94.23,88H54.47a8.88,8.88,0,0,1-8.87-8.88V45A8.87,8.87,0,0,1,54.47,36.16Z"/><circle class="d" cx="81.6" cy="61.7" r="14.9"/></svg>