<svg xmlns="http://www.w3.org/2000/svg" viewBox="0 0 116.95 96.91"><defs><style>.a{fill:#e9e9e9;stroke:#e9e9e9;}.a,.b{stroke-linecap:round;stroke-linejoin:round;stroke-width:2px;}.b{fill:#3d84f6;stroke:#3d84f6;}.c{fill:#fff;}</style></defs><path class="a" d="M98.9,35.29V13.06A12.05,12.05,0,0,0,86.86,1H13.06A12.06,12.06,0,0,0,1,13.06V59.37A12.06,12.06,0,0,0,13.06,71.42h2.55v11.9l17.25-11.9h11"/><path class="b" d="M52.74,35.3h54.34A8.87,8.87,0,0,1,116,44.17v34.1a8.88,8.88,0,0,1-8.87,8.88h-1.89v8.76l-12.7-8.76H52.74a8.89,8.89,0,0,1-8.88-8.88V44.17A8.88,8.88,0,0,1,52.74,35.3Z"/><circle class="c" cx="63.86" cy="61.75" r="4.43"/><circle class="c" cx="79.91" cy="61.75" r="4.43"/><circle class="c" cx="95.96" cy="61.75" r="4.43"/></svg>